Masculine Feminine was Jean-Luc Godard's first (but not his last) foray into the burgeoning "Children of the Sixties" generation -- or, as Godard described it, "the children of Marx and Coca-Cola." Impressionable teenager Paul (Jean-Pierre Léaud) tries to make sense of the world by working as an interviewer for a research firm. Meanwhile, Paul cohabits with aspiring singer Madeleine (Chantal Goya), with two additional young ladies joining the nocturnal festivities. Paul jumps or is pushed from a window, leaving a pregnant Madeleine to move on to the next aimless youth she meets. While the nominal hero has failed to find fulfillment in personal relations, another male protagonist (Michel Debord), a political activist, is luckier -- an indication that the director favored revolutionary politics over simple emotionalism at this point in his career. Though Godard's free-form style is usually opposed to linear storytelling, Masculine Feminine has solid literary roots, having been inspired by two Guy de Maupassant stories. 

   General
      Complete name : Masculin Feminin.avi
      Format : AVI
      Format/Info : Audio Video Interleave
      File size : 1.24 GiB
      Duration : 1h 44mn
      Overall bit rate : 1 700 Kbps
      Writing application : VirtualDubMod 1.5.4.1 (build 2178/release)
      Writing library : VirtualDubMod build 2178/release
   Video #0
      ID : 0
      Format : MPEG-4 Visual
      Format profile : AdvancedSimple@L5
      Format settings, BVOP : Yes
      Format settings, QPel : No
      Format settings, GMC : No warppoints
      Format settings, Matrix : Custom
      Codec ID : XVID
      Codec ID/Hint : XviD
      Duration : 1h 44mn
      Bit rate : 1 502 Kbps
      Width : 640 pixels
      Height : 480 pixels
      Display aspect ratio : 4:3
      Frame rate : 23.976 fps
      Resolution : 24 bits
      Colorimetry : 4:2:0
      Scan type : Progressive
      Bits/(Pixel*Frame) : 0.204
      Stream size : 1.10 GiB (88%)
      Writing library : XviD 1.1.2 (UTC 2006-11-01)
   Audio #1
      ID : 1
      Format : AC-3
      Format/Info : Audio Coding 3
      Codec ID : 2000
      Duration : 1h 44mn
      Bit rate mode : Constant
      Bit rate : 192 Kbps
      Channel(s) : 1 channel
      Channel positions : C
      Sampling rate : 48.0 KHz
      Stream size : 144 MiB (11%)
      Alignment : Split accross interleaves
      Interleave, duration : 96 ms (2.30 video frames)
      Interleave, preload duration : 96 ms
      Language : French

IMDB: tt0060675

French audio; English, Spanish and Portuguese subtitles

Posted at Karagarga by crasus

Criterion Collection Rip.